<svg xmlns="http://www.w3.org/2000/svg" version="1.1" width="1920" height="1920">
  <path style="fill:#ff0000;fill-opacity:1;stroke-width:1.00940847;paint-order:fill markers stroke" d="M 224.98438 366.6875 C 100.34312 366.6875 0 467.03062 0 591.67188 L 0 1328.3281 C 0 1452.9694 100.34312 1553.3125 224.98438 1553.3125 L 1695.0156 1553.3125 C 1819.6569 1553.3125 1920 1452.9694 1920 1328.3281 L 1920 591.67188 C 1920 467.03062 1819.6569 366.6875 1695.0156 366.6875 L 224.98438 366.6875 z M 741.23438 741.23438 L 1178.7656 960 L 741.23438 1178.7656 L 741.23438 741.23438 z M 1330.3438 1303.7656 L 1366.041 1303.7656 C 1376.9778 1303.7656 1385.7812 1312.571 1385.7812 1323.5078 L 1385.7812 1346.4746 L 1747.3047 1346.4746 C 1760.4329 1346.4746 1771.002 1357.0436 1771.002 1370.1719 L 1771.002 1398.4043 C 1771.002 1411.5325 1760.4329 1422.1016 1747.3047 1422.1016 L 1385.7812 1422.1016 L 1385.7812 1445.0703 C 1385.7812 1456.0071 1376.9778 1464.8125 1366.041 1464.8125 L 1330.3438 1464.8125 C 1319.4069 1464.8125 1310.6016 1456.0071 1310.6016 1445.0703 L 1310.6016 1422.1016 L 172.69531 1422.1016 C 159.56707 1422.1016 148.99805 1411.5325 148.99805 1398.4043 L 148.99805 1370.1719 C 148.99805 1357.0436 159.56707 1346.4746 172.69531 1346.4746 L 1310.6016 1346.4746 L 1310.6016 1323.5078 C 1310.6016 1312.571 1319.407 1303.7656 1330.3438 1303.7656 z " />
</svg>
