<svg xmlns="http://www.w3.org/2000/svg" version="1.1" width="1920" height="1920">
  <path style="fill:#ff0000;fill-opacity:1;stroke:none" d="M 166.29102 366.6875 C 74.166096 366.6875 0 440.8536 0 532.97852 L 0 1387.0215 C 0 1479.1464 74.166096 1553.3125 166.29102 1553.3125 L 1753.709 1553.3125 C 1845.8339 1553.3125 1920 1479.1464 1920 1387.0215 L 1920 532.97852 C 1920 440.8536 1845.8339 366.6875 1753.709 366.6875 L 166.29102 366.6875 z M 716.65625 457.55078 L 1203.3438 913.42578 L 986.91797 919.88086 L 1104.6602 1186.0332 L 995.86914 1235.1309 L 876.20508 970.50391 L 725.58008 1125.7168 L 716.65625 457.55078 z M 1322.3438 1296.0898 L 1366.041 1296.0898 C 1376.9778 1296.0898 1385.7813 1304.8952 1385.7812 1315.832 L 1385.7812 1344.7988 L 1747.3047 1344.7988 C 1760.4329 1344.7988 1771.002 1355.3678 1771.002 1368.4961 L 1771.002 1396.7285 C 1771.002 1409.8567 1760.4329 1420.4258 1747.3047 1420.4258 L 1385.7812 1420.4258 L 1385.7812 1449.3945 C 1385.7812 1460.3313 1376.9778 1469.1367 1366.041 1469.1367 L 1322.3438 1469.1367 C 1311.4069 1469.1367 1302.6016 1460.3313 1302.6016 1449.3945 L 1302.6016 1420.4258 L 172.69531 1420.4258 C 159.56713 1420.4258 148.99805 1409.8567 148.99805 1396.7285 L 148.99805 1368.4961 C 148.99805 1355.3678 159.56713 1344.7988 172.69531 1344.7988 L 1302.6016 1344.7988 L 1302.6016 1315.832 C 1302.6016 1304.8952 1311.407 1296.0898 1322.3438 1296.0898 z " />
</svg>
